<svg width="139" height="54" viewBox="0 0 139 54" fill="none" xmlns="http://www.w3.org/2000/svg">
<path d="M36.7542 52.1988C35.8118 52.1534 35.1139 51.7646 34.6607 51.0325C34.2399 50.302 34.0589 49.3266 34.1178 48.1063C34.1653 47.1222 34.2386 46.2774 34.3377 45.572C34.4369 44.8666 34.603 44.1249 34.8359 43.347C35.0708 42.5298 35.3629 41.5377 35.7124 40.3709C36.0962 39.1663 36.5774 37.631 37.156 35.765C37.5017 34.6769 37.9284 33.2573 38.4363 31.5063C38.9787 29.7175 39.5285 27.7712 40.086 25.6675C40.6454 23.5244 41.1236 21.3774 41.5205 19.2264C41.9518 17.0377 42.2121 15.0182 42.3013 13.1681C42.3621 11.9084 42.1906 10.7362 41.7869 9.65143C38.59 13.1272 35.5024 17.713 32.5241 23.4088C29.5783 29.1062 26.8795 35.7625 24.4275 43.3776C23.717 45.2767 22.9394 46.5413 22.0947 47.1713C21.2519 47.7619 20.4568 48.0392 19.7093 48.0032C19.4818 47.9922 19.1482 47.8183 18.7085 47.4814C18.2706 47.1052 17.8785 46.455 17.5322 45.5308C17.1859 44.6066 17.0526 43.3178 17.1324 41.6645C17.1514 41.2709 17.2564 40.7827 17.4473 40.2001C17.6402 39.5781 17.9162 38.9207 18.2753 38.2278C18.6666 36.1949 18.9832 34.0204 19.2252 31.7042C19.5016 29.3501 19.7121 27.0126 19.8566 24.6917C20.0355 22.333 20.1743 20.1301 20.2731 18.0832C20.349 16.5086 20.318 15.1261 20.18 13.9358C18.4699 16.2996 16.8164 19.179 15.2194 22.5741C13.6224 25.9692 12.145 29.5871 10.7871 33.4278C9.46177 37.27 8.33517 41.0429 7.40735 44.7465C7.1687 45.6424 6.9004 46.4778 6.60244 47.2526C6.30639 47.9879 5.88699 48.5793 5.34425 49.0266C4.83591 49.4361 4.11053 49.6181 3.16811 49.5726C2.12821 49.5225 1.37296 48.9731 0.902376 47.9246C0.43179 46.876 0.237321 45.5054 0.318969 43.8127C0.381629 42.5137 0.689807 40.8517 1.2435 38.8267C1.7991 36.7623 2.52572 34.5286 3.42338 32.1256C4.32293 29.6833 5.33812 27.2071 6.46895 24.697C7.63418 22.1491 8.84341 19.7019 10.0966 17.3555C11.3499 15.0092 12.607 12.9195 13.868 11.0864C15.1635 9.21553 16.374 7.75486 17.4995 6.70438C18.6595 5.61611 19.6944 5.09391 20.6044 5.13781C20.6369 5.13937 20.6856 5.14172 20.7506 5.14486C21.4655 5.17934 22.1117 5.28942 22.689 5.47509C23.3008 5.62297 23.817 6.06216 24.2378 6.79267C24.693 7.48538 25.0613 8.62765 25.3429 10.2195C25.6244 11.8113 25.8258 14.0503 25.9472 16.9364C25.978 17.6481 25.9859 18.4968 25.971 19.4825C25.9579 20.4288 25.9267 21.4137 25.8773 22.4372C27.0902 19.5759 28.3921 16.8965 29.7829 14.399C31.2062 11.903 32.6477 9.70379 34.1076 7.8014C35.5999 5.90058 37.0551 4.43198 38.4731 3.39561C39.8911 2.35924 41.1851 1.86927 42.355 1.9257C43.7199 1.99154 44.9673 2.466 46.0974 3.34909C47.2293 4.19281 48.1071 5.57666 48.7309 7.50064C49.3547 9.42463 49.5878 12.0202 49.4302 15.2875C49.2631 18.7516 48.8408 22.1047 48.1633 25.3469C47.4876 28.5497 46.6905 31.5691 45.772 34.4051C44.8534 37.2411 43.9463 39.8409 43.0505 42.2045C42.1567 44.5287 41.408 46.5443 40.8045 48.2513C40.3232 49.4512 39.7873 50.4315 39.1969 51.1921C38.6083 51.9134 37.7941 52.249 36.7542 52.1988Z" fill="#DFDFDF"/>
<path d="M57.1859 25.259C55.2123 25.0794 53.7063 24.4213 52.6677 23.2847C51.6322 22.1275 51.2477 20.6754 51.514 18.9281C51.5986 18.3731 51.7821 17.8167 52.0644 17.2588C52.3745 16.7035 52.7201 16.1931 53.1011 15.7276C52.9625 15.5274 52.8595 15.2784 52.7922 14.9805C52.7558 14.6645 52.769 14.301 52.8317 13.8899C53.0353 12.5538 53.5415 11.3598 54.35 10.308C55.1617 9.23559 56.1723 8.33762 57.3817 7.61406C58.5911 6.89049 59.8836 6.36205 61.259 6.02874C62.6344 5.69542 63.9892 5.58948 65.3235 5.71092C67.6028 5.91838 69.3791 6.65318 70.6522 7.91531C71.953 9.17997 72.4217 11.0045 72.0582 13.389C71.8765 14.5812 71.4414 15.7713 70.753 16.9591C70.0647 18.1469 69.2035 19.2669 68.1694 20.319C67.1663 21.3531 66.0414 22.2615 64.7947 23.0442C63.5759 23.8294 62.3019 24.4221 60.9727 24.8221C59.6713 25.2247 58.409 25.3703 57.1859 25.259ZM58.1076 14.7765C58.2121 15.0153 58.2409 15.2888 58.1939 15.5971C58.1469 15.9055 58.0149 16.2165 57.798 16.5302C57.581 16.8439 57.3469 17.2707 57.0955 17.8105C56.8472 18.3298 56.6463 19.093 56.4928 20.1003C56.452 20.3675 56.4593 20.5974 56.5145 20.79C56.6006 20.9646 56.8243 21.0683 57.1857 21.1012C58.1308 21.1872 59.0548 21.0421 59.9576 20.6657C60.8883 20.2919 61.7436 19.7654 62.5235 19.0861C63.3312 18.4093 64.0403 17.6402 64.6508 16.7788C65.2921 15.8993 65.81 14.9982 66.2043 14.0754C66.6296 13.1346 66.9049 12.253 67.0302 11.4308C67.1117 10.8964 67.0291 10.5137 66.7825 10.2829C66.5358 10.052 66.065 9.90494 65.3701 9.84169C64.425 9.75567 63.4177 9.89323 62.348 10.2544C61.3093 10.5975 60.3984 11.119 59.6153 11.8188C58.8354 12.4981 58.3733 13.3105 58.2292 14.2561C58.201 14.4411 58.1605 14.6146 58.1076 14.7765Z" fill="#DFDFDF"/>
<path d="M64.3375 26.6283C66.2332 27.262 67.5382 28.4197 68.2524 30.1014C68.9579 31.809 68.9419 33.766 68.2043 35.9724C67.97 36.6733 67.6379 37.3559 67.2081 38.0202C66.7515 38.6756 66.2722 39.2657 65.7703 39.7905C65.8524 40.0777 65.8861 40.4208 65.8714 40.82C65.8214 41.2361 65.7096 41.7037 65.536 42.2229C64.972 43.9101 64.1486 45.352 63.0659 46.5484C61.9746 47.7708 60.7347 48.7271 59.3463 49.4173C57.9579 50.1075 56.5408 50.5284 55.095 50.6799C53.6492 50.8315 52.2855 50.6931 51.0039 50.2646C48.8146 49.5328 47.2643 48.2209 46.3532 46.3291C45.4153 44.4284 45.4497 41.9725 46.4563 38.9614C46.9596 37.4558 47.7118 36.0047 48.7131 34.6079C49.7143 33.2111 50.8674 31.9372 52.1724 30.7862C53.442 29.6523 54.7973 28.7057 56.2384 27.9466C57.6529 27.1785 59.0693 26.6708 60.4877 26.4235C61.8795 26.1673 63.1627 26.2356 64.3375 26.6283ZM60.5788 40.003C60.5408 39.6728 60.5869 39.3131 60.717 38.9237C60.8472 38.5344 61.0618 38.1588 61.3608 37.797C61.6599 37.4352 62.0066 36.9307 62.4011 36.2834C62.7869 35.6621 63.1924 34.7154 63.6176 33.4435C63.7304 33.1061 63.7858 32.8071 63.7838 32.5467C63.7464 32.3034 63.5542 32.1237 63.2071 32.0076C62.2993 31.7042 61.3495 31.7041 60.3576 32.0074C59.339 32.3018 58.3531 32.8091 57.3999 33.5293C56.42 34.2407 55.5122 35.0916 54.6765 36.082C53.8054 37.0894 53.0502 38.15 52.4107 39.2637C51.7359 40.3944 51.2249 41.479 50.8778 42.5173C50.6522 43.1922 50.6295 43.704 50.8097 44.0529C50.9899 44.4017 51.4138 44.6877 52.0813 44.9108C52.9891 45.2143 54.019 45.2412 55.1711 44.9914C56.2878 44.7587 57.3271 44.2692 58.289 43.523C59.2422 42.8027 59.9184 41.8456 60.3175 40.6515C60.3956 40.4179 60.4827 40.2017 60.5788 40.003Z" fill="#DFDFDF"/>
<path d="M78.2571 52.7232C77.127 52.7232 75.5801 52.4732 74.45 51.6008C73.3669 50.6739 71.8296 49.1902 71.1233 47.5C70.417 45.7552 70.0638 41.2026 70.0638 41.2026C70.0638 41.2026 70.3699 34.4102 71.1233 30.7027C71.9238 26.9951 72.3674 24.0913 73.2014 19.8622C73.9443 16.0954 74.1592 14.0072 75.1493 10.2257C75.6672 8.6446 76.3029 7.58141 77.0563 7.03618C77.8098 6.43644 78.7986 6.13657 80.0229 6.13657C82.8011 6.13657 83.3426 9.45963 83.3426 11.5795C83.3426 12.1247 83.1229 13.5288 82.8108 15.1107C82.4662 16.8571 81.769 19.8583 81.3983 21.5994C80.7804 24.5007 80.5097 25.8336 79.7651 29.4122C79.2031 32.113 78.6842 34.7131 78.3967 36.3423C77.9995 38.5935 77.713 42.0322 79.1963 42.0322C80.2793 40.124 82.0242 36.9935 83.3426 34.1583C84.7082 31.2686 86.1444 28.2426 87.6512 25.0803C89.2051 21.918 90.759 18.9738 92.313 16.2477C93.8669 13.467 95.3972 11.2043 96.9041 9.45963C98.4109 7.71491 99.8471 6.84255 101.213 6.84255C102.39 6.84255 103.496 7.11516 104.532 7.66039C105.615 8.15109 106.557 9.13249 107.358 10.6046C108.158 12.0222 108.77 14.0668 109.194 16.7384C109.665 19.41 109.9 22.9267 109.9 27.2885C109.9 29.4694 110.065 31.5957 110.395 33.6676C110.772 35.6849 111.384 37.3751 112.231 38.7382C113.079 40.0467 114.28 40.701 115.834 40.701C118.518 40.701 120.919 40.1285 123.038 38.9835C125.157 37.8386 127.017 36.5028 128.618 34.9761C130.219 33.4495 131.561 32.1137 132.644 30.9687C133.303 30.2054 133.868 29.6057 134.339 29.1695C134.857 28.7333 135.281 28.5152 135.611 28.5152C136.6 28.5152 137.306 28.8151 137.73 29.4149C138.201 30.0146 138.436 30.8324 138.436 31.8684C138.436 32.4136 138.036 33.4223 137.235 34.8944C136.435 36.3665 135.305 38.0567 133.845 39.9649C132.432 41.8187 130.808 43.618 128.971 45.3627C127.135 47.1074 125.157 48.5522 123.038 49.6972C120.919 50.8422 118.753 51.4147 116.54 51.4147C112.82 51.4147 109.736 50.6513 107.287 49.1247C104.886 47.5436 103.096 44.9265 101.919 41.2735C100.742 37.566 100.153 32.5226 100.153 26.1435C100.153 25.9799 100.153 25.7073 100.153 25.3257C100.153 23.6355 100.13 22.1361 100.083 20.8276C100.083 19.519 100.012 18.4558 99.8706 17.638C99.0701 19.3282 98.1048 21.3455 96.9747 23.69C95.8917 26.0345 94.7145 28.5425 93.4431 31.2141C92.1717 33.8312 90.8532 36.421 89.4877 38.9835C88.1221 41.4916 86.7565 43.7815 85.391 45.8534C84.0725 47.9252 82.8011 49.5882 81.5768 50.8422C80.3525 52.0962 79.2459 52.7232 78.2571 52.7232Z" fill="#DFDFDF"/>
</svg>
